

<svg id="Capa_1" data-name="Capa 1" xmlns="http://www.w3.org/2000/svg" viewBox="0 0 1105.5 791.86" width="250" height="250">
  <defs>
    <style>.cls-1{fill:#171615;}</style>
  </defs>
  <title>aobeats</title>
  <path className="cls-1 svg-elem-1" d="M355.88,55.82a15.1,15.1,0,0,0-6.18,4.25c-.48.57-14.41,24.71-31,53.63s-43.6,76-60,104.71S211,301.61,189.26,339.55s-49.59,86.53-61.91,108C78,533.64,79.86,530.36,79.51,532.72a12.84,12.84,0,0,0,7,13.54l2.23,1.18h542l2-1.05c6-3.11,8.72-9.51,6.71-15.38-.44-1.31-7.45-13.93-15.56-28S582.87,431.6,550.85,375.7,471.63,237.47,446,192.78s-53.14-92.71-61.16-106.64c-9.07-15.9-15.16-26-16.17-27.07a16.72,16.72,0,0,0-3.59-2.59A14.48,14.48,0,0,0,355.88,55.82Z" transform="translate(-79.37 -55.35)"></path>
  <path d="M920.21,63.07c-2.8.25-9.14.95-14.09,1.46C858.73,69.67,811.79,90,773.66,121.88a340.74,340.74,0,0,0-29.56,29.56c-25.82,31-44.09,67.44-52.28,104.42-8.88,40-8.63,77.71.95,116.35a243.68,243.68,0,0,0,33.94,77.4A249.73,249.73,0,0,0,885.5,556.82a311.27,311.27,0,0,0,38.39,4.82c12.43.83,25.62.25,43.26-2a249.2,249.2,0,0,0,176.36-110.06,243.75,243.75,0,0,0,33.94-77.4,248.38,248.38,0,0,0-2.22-128.85c-9.7-33.81-25.75-63.82-49.1-91.92-6.72-8.18-23.22-24.3-32.23-31.66-32.48-26.52-69.59-44.15-109.62-52.08-9.83-2-16-2.79-35.21-4.7A168.52,168.52,0,0,0,920.21,63.07Z" transform="translate(-79.37 -55.35)" className="svg-elem-2"></path>
  <path className="cls-1 svg-elem-3" d="M148.17,636.16h63.72q37.43,0,56,13.5t18.54,36.84a48.76,48.76,0,0,1-8.82,28.18,45.67,45.67,0,0,1-24.3,17.84,61.89,61.89,0,0,1,30.42,20.84q11.69,14.83,11.7,32.17,0,27.35-20.88,42.85t-63,15.5H148.17Zm60.12,86q52.92,0,52.92-33A29.07,29.07,0,0,0,249.33,665q-11.88-9.16-37.08-9.17H173v66.35Zm7.56,101.36q52.92,0,52.92-39.34,0-42.35-59-42.35H173v81.69Z" transform="translate(-79.37 -55.35)"></path>
  <path className="cls-1 svg-elem-4" d="M359.13,843.88V635.82H496.65V656.5H382.89v68.35h94v21.34h-94v77H495.57v20.67Z" transform="translate(-79.37 -55.35)"></path>
  <path className="cls-1 svg-elem-5" d="M693.21,843.88,670.52,783.2H598.17l-22.68,60.68H550.65l82.79-211.39h2.89l82.8,211.39ZM605,765.19h59l-29.53-79.35Z" transform="translate(-79.37 -55.35)"></path>
  <path className="cls-1 svg-elem-6" d="M826.77,843.88v-187H763.05v-21H918.57v21H852.33v187Z" transform="translate(-79.37 -55.35)"></path>
  <path className="cls-1 svg-elem-7" d="M1098.21,741.52s4.07,4.34,12.24,13,12.24,19.57,12.24,32.68a56,56,0,0,1-8.1,29q-8.1,13.68-25,22.34t-41.76,8.67q-43.57,0-70.2-26.34l13-21v-.33c.23,0,.36.11.36.33A69.51,69.51,0,0,0,1016,819q15.29,7.19,35.46,7.17,19.78,0,33.12-10.33t13.32-25.35q0-9.66-4.14-16.17t-14.94-12.83q-10.8-6.33-32.4-15-33.13-12-47.34-27.34t-14.22-34.34q0-23.34,18.36-37.35t50-14a86.66,86.66,0,0,1,34.38,6.84,84.22,84.22,0,0,1,27.9,19.17l-14,17.34-.36.33q-10.8-13.67-22.5-19t-29.34-5.33q-17.28,0-27.9,8.84t-10.62,21.5a30.92,30.92,0,0,0,4.5,16.84q4.49,7.17,16.38,14t34.56,15.17ZM991.29,798.2l-.72,1.34C989.13,797.76,989.36,797.32,991.29,798.2Zm3.24.34c0,.66-.49.78-1.44.33a7.14,7.14,0,0,0-1.8-.67l.72-1.33,2.52,1.33Zm102.6-120.7c0-.67.47-.78,1.44-.34a6.27,6.27,0,0,0,1.8.67l-1.08,1.33-2.16-1.33ZM1102,679a4.81,4.81,0,0,0-1.62-.83l.72-1C1102.53,679,1102.82,679.56,1102,679Z" transform="translate(-79.37 -55.35)"></path>
</svg>
